<?xml version="1.0" encoding="utf-8"?>
<!-- Generator: Adobe Illustrator 20.1.0, SVG Export Plug-In . SVG Version: 6.00 Build 0)  -->
<svg version="1.1" id="Capa_1" xmlns="http://www.w3.org/2000/svg" xmlns:xlink="http://www.w3.org/1999/xlink" x="0px" y="0px"
	 width="225px" height="104px" viewBox="0 0 225 104" style="enable-background:new 0 0 225 104;" xml:space="preserve">
<style type="text/css">
	.st0{display:none;fill:#1A408C;}
	.st1{fill:#FFFFFF;}
	.st2{fill:#B62418;}
	.st3{fill:#1A408C;}
</style>
<g>
	<g>
		<path class="st0" d="M235.1,56.5c0,36.7-54.9,66.4-122.6,66.4c-67.7,0-122.6-29.7-122.6-66.4c0-36.7,54.9-66.4,122.6-66.4
			C180.2-9.9,235.1,19.8,235.1,56.5"/>
		<path class="st1" d="M208.2,84.2c0,7.2-5.7,13-12.6,13H28.5c-7,0-12.6-5.8-12.6-13V26c0-7.2,5.7-13,12.6-13h167.1
			c7,0,12.6,5.8,12.6,13V84.2z"/>
		<path class="st1" d="M109.3,22.2l-3-1c-0.3-0.1-0.6-0.2-0.8-0.3c0.2-1,0.8-2.8,1.3-4.3l1-3l-3.1,0.9c-1.2,0.3-2.6,0.7-3.5,0.9
			c-0.1-0.3-0.2-0.7-0.2-1.1l-0.7-3.9l-2.4,3.2c-0.3,0.5-0.7,0.9-1.1,1.4c0.4-1.5,0.9-3.2,1.4-4.8l1.3-3.9l-3.7,1.8
			c-0.8,0.4-1.8,0.8-2.3,1c-0.6-1-1.7-3-2.5-4.7L89.3,1l-1.6,3.3c-0.8,1.7-1.9,3.7-2.5,4.7c-0.6-0.2-1.5-0.6-2.3-1l-3.7-1.8l1.3,3.9
			c0.5,1.6,1,3.3,1.4,4.8c-0.4-0.4-0.7-0.9-1.1-1.4l-2.4-3.2l-0.7,3.9c-0.1,0.4-0.2,0.7-0.2,1.1c-0.9-0.2-2.3-0.5-3.5-0.9l-3.1-0.9
			l1,3c0.5,1.5,1,3.3,1.3,4.3c-0.3,0.1-0.6,0.2-0.8,0.3l-3,1l2.5,2c3,2.3,6.5,5.2,7.5,6.2c-0.1,0.4-0.3,1.1-0.5,1.6l-1.1,2.9l3-0.5
			c1.2-0.2,4.3-0.7,6.2-0.9c-0.1,1.6-0.3,4.4-0.5,6.8l-0.2,1.9h5.9l-0.2-1.9c-0.2-2.4-0.4-5.2-0.5-6.8c1.9,0.2,5,0.7,6.2,0.9l3,0.5
			L99.7,32c-0.2-0.6-0.4-1.2-0.5-1.6c1-1.1,4.5-3.9,7.5-6.2L109.3,22.2z"/>
		<path class="st2" d="M89.3,5c0,0,2.7,5.6,3.4,5.8c0.7,0.2,3.7-1.3,3.7-1.3s-3.1,9.3-2,9.5c1.1,0.2,4.6-4.5,4.6-4.5
			s0.4,2.3,0.9,2.5c0.5,0.3,5-1,5-1s-1.7,5.3-1.4,5.8c0.3,0.5,2.1,1.1,2.1,1.1s-8,6.2-8.2,7c-0.2,0.8,0.7,2.8,0.7,2.8
			s-7.9-1.4-8.2-0.9c-0.3,0.5,0.4,8.6,0.4,8.6h-2.2c0,0,0.7-8.1,0.4-8.6c-0.3-0.5-8.2,0.9-8.2,0.9s0.8-2.1,0.7-2.8
			c-0.2-0.8-8.2-7-8.2-7s1.8-0.6,2.1-1.1S73.6,16,73.6,16s4.5,1.3,5,1c0.5-0.3,0.9-2.5,0.9-2.5s3.5,4.7,4.6,4.5c1.1-0.2-2-9.5-2-9.5
			s3,1.5,3.7,1.3C86.6,10.6,89.3,5,89.3,5"/>
		<path class="st3" d="M37.9,44.7v5.2c0,0.9,0,1.4,0.1,1.6c0.1,0.2,0.3,0.4,0.6,0.6c0.3,0.2,0.7,0.2,1.1,0.2h0.6v0.5h-8.8v-0.5H32
			c0.5,0,0.9-0.1,1.2-0.3c0.2-0.1,0.4-0.3,0.5-0.6c0.1-0.2,0.1-0.7,0.1-1.6V38.9c0-0.9,0-1.4-0.1-1.6c-0.1-0.2-0.3-0.4-0.6-0.6
			c-0.3-0.2-0.7-0.2-1.1-0.2h-0.6V36h8.8v0.5h-0.6c-0.5,0-0.9,0.1-1.2,0.3c-0.2,0.1-0.4,0.3-0.5,0.6c-0.1,0.2-0.1,0.7-0.1,1.6v4.8h6
			v-4.8c0-0.9,0-1.4-0.1-1.6c-0.1-0.2-0.3-0.4-0.6-0.6c-0.3-0.2-0.7-0.2-1.1-0.2h-0.5V36h8.8v0.5h-0.5c-0.5,0-0.9,0.1-1.2,0.3
			c-0.2,0.1-0.4,0.3-0.5,0.6c-0.1,0.2-0.1,0.7-0.1,1.6v11.1c0,0.9,0,1.4,0.1,1.6c0.1,0.2,0.3,0.4,0.6,0.6c0.3,0.2,0.7,0.2,1.1,0.2
			h0.5v0.5h-8.8v-0.5H42c0.5,0,0.9-0.1,1.2-0.3c0.2-0.1,0.4-0.3,0.5-0.6c0.1-0.2,0.1-0.7,0.1-1.6v-5.2H37.9z"/>
		<path class="st3" d="M58,51.1c-1.4,1.3-2.7,1.9-3.8,1.9c-0.7,0-1.2-0.2-1.7-0.7c-0.4-0.4-0.7-1-0.7-1.6c0-0.9,0.4-1.7,1.1-2.4
			c0.8-0.7,2.4-1.7,5-2.8v-1.2c0-0.9,0-1.4-0.1-1.7c-0.1-0.2-0.3-0.4-0.5-0.6c-0.3-0.2-0.6-0.3-0.9-0.3c-0.5,0-1,0.1-1.3,0.4
			c-0.2,0.1-0.3,0.3-0.3,0.5c0,0.2,0.1,0.4,0.3,0.6c0.3,0.4,0.5,0.7,0.5,1c0,0.4-0.2,0.8-0.5,1c-0.3,0.3-0.7,0.4-1.2,0.4
			c-0.5,0-1-0.2-1.3-0.5c-0.4-0.3-0.5-0.7-0.5-1.1c0-0.6,0.2-1.2,0.7-1.7c0.5-0.5,1.1-1,2-1.3c0.8-0.3,1.7-0.4,2.6-0.4
			c1.1,0,2,0.2,2.6,0.7c0.6,0.5,1.1,1,1.3,1.5c0.1,0.3,0.2,1.1,0.2,2.4V50c0,0.5,0,0.9,0.1,1l0.2,0.3l0.3,0.1c0.2,0,0.4-0.2,0.7-0.5
			l0.4,0.3c-0.4,0.6-0.8,1.1-1.3,1.3c-0.4,0.3-0.9,0.4-1.5,0.4c-0.7,0-1.2-0.2-1.6-0.5C58.3,52.2,58.1,51.7,58,51.1 M58,50.2v-3.9
			c-1,0.6-1.7,1.2-2.2,1.9c-0.3,0.4-0.5,0.9-0.5,1.4c0,0.4,0.1,0.7,0.4,1c0.2,0.2,0.5,0.3,0.9,0.3C57,50.9,57.4,50.7,58,50.2"/>
		<path class="st3" d="M69.1,41.2v2.6c0.8-1.2,1.4-2,2-2.4c0.6-0.4,1.1-0.6,1.7-0.6c0.5,0,0.8,0.1,1.1,0.4c0.3,0.3,0.4,0.7,0.4,1.2
			c0,0.6-0.1,1-0.4,1.3c-0.3,0.3-0.6,0.5-1,0.5c-0.4,0-0.8-0.1-1.1-0.4c-0.3-0.3-0.5-0.4-0.6-0.5L71,43.3c-0.2,0-0.5,0.1-0.7,0.3
			c-0.3,0.3-0.6,0.7-0.8,1.2c-0.3,0.8-0.4,1.7-0.4,2.7v2.7l0,0.7c0,0.5,0,0.8,0.1,0.9c0.1,0.2,0.2,0.4,0.4,0.5
			c0.2,0.1,0.5,0.2,1,0.2v0.4h-6.3v-0.4c0.5,0,0.8-0.2,1-0.4c0.2-0.2,0.3-0.9,0.3-1.9v-6.4c0-0.7,0-1.1-0.1-1.3
			c-0.1-0.2-0.2-0.4-0.4-0.5c-0.2-0.1-0.4-0.2-0.8-0.2v-0.5H69.1z"/>
		<path class="st3" d="M80.4,41.2v2.6c0.8-1.2,1.4-2,2-2.4c0.6-0.4,1.1-0.6,1.7-0.6c0.5,0,0.8,0.1,1.1,0.4c0.3,0.3,0.4,0.7,0.4,1.2
			c0,0.6-0.1,1-0.4,1.3c-0.3,0.3-0.6,0.5-1,0.5c-0.4,0-0.8-0.1-1.1-0.4c-0.3-0.3-0.5-0.4-0.6-0.5l-0.3-0.1c-0.2,0-0.5,0.1-0.7,0.3
			c-0.3,0.3-0.6,0.7-0.8,1.2c-0.3,0.8-0.4,1.7-0.4,2.7v2.7l0,0.7c0,0.5,0,0.8,0.1,0.9c0.1,0.2,0.2,0.4,0.4,0.5
			c0.2,0.1,0.5,0.2,1,0.2v0.4h-6.3v-0.4c0.5,0,0.8-0.2,1-0.4c0.2-0.2,0.3-0.9,0.3-1.9v-6.4c0-0.7,0-1.1-0.1-1.3
			c-0.1-0.2-0.2-0.4-0.4-0.5c-0.2-0.1-0.4-0.2-0.8-0.2v-0.5H80.4z"/>
		<path class="st3" d="M91.4,41.2v9.2c0,0.8,0.1,1.3,0.3,1.6c0.2,0.2,0.6,0.4,1.1,0.4v0.4h-6.3v-0.4c0.5,0,0.9-0.2,1.1-0.4
			c0.2-0.2,0.2-0.7,0.2-1.5v-6.8c0-0.8-0.1-1.3-0.3-1.6c-0.2-0.2-0.6-0.4-1.1-0.4v-0.5H91.4z"/>
		<path class="st3" d="M101.3,40.9l0.2,4h-0.4c-0.5-1.2-1-2-1.6-2.4c-0.5-0.4-1.1-0.6-1.6-0.6c-0.3,0-0.6,0.1-0.9,0.3
			c-0.2,0.2-0.4,0.5-0.4,0.8c0,0.2,0.1,0.4,0.2,0.6c0.3,0.3,1,0.9,2.2,1.7c1.2,0.8,2,1.5,2.4,2.1c0.4,0.6,0.6,1.2,0.6,1.9
			c0,0.6-0.2,1.3-0.5,1.9s-0.8,1.1-1.4,1.4c-0.6,0.3-1.2,0.5-2,0.5c-0.6,0-1.3-0.2-2.2-0.5c-0.2-0.1-0.4-0.1-0.5-0.1
			c-0.3,0-0.5,0.2-0.7,0.6h-0.4L94.3,49h0.4c0.4,1.1,0.9,1.9,1.5,2.5c0.7,0.5,1.3,0.8,1.8,0.8c0.4,0,0.7-0.1,1-0.4
			c0.3-0.2,0.4-0.5,0.4-0.9c0-0.4-0.1-0.7-0.4-1c-0.2-0.3-0.8-0.7-1.7-1.3c-1.3-0.9-2.1-1.5-2.5-2c-0.5-0.7-0.8-1.4-0.8-2.3
			c0-0.9,0.3-1.7,0.9-2.4c0.6-0.7,1.5-1.1,2.7-1.1c0.6,0,1.2,0.2,1.8,0.5c0.2,0.1,0.4,0.2,0.5,0.2l0.4-0.1c0.1-0.1,0.2-0.2,0.4-0.5
			H101.3z"/>
		<path class="st3" d="M119.1,36v4.6h-0.4c-0.3-1.1-0.6-1.8-0.9-2.3c-0.3-0.5-0.8-0.8-1.3-1.1c-0.3-0.1-0.9-0.2-1.7-0.2h-1.3v13
			c0,0.9,0,1.4,0.1,1.6c0.1,0.2,0.3,0.4,0.6,0.6c0.3,0.2,0.7,0.2,1.1,0.2h0.6v0.5h-8.8v-0.5h0.6c0.5,0,0.9-0.1,1.2-0.3
			c0.2-0.1,0.4-0.3,0.5-0.6c0.1-0.2,0.1-0.7,0.1-1.6v-13h-1.2c-1.1,0-2,0.2-2.5,0.7c-0.7,0.7-1.2,1.6-1.4,2.9H104V36H119.1z"/>
		<path class="st3" d="M125,41.2v9.2c0,0.8,0.1,1.3,0.3,1.6c0.2,0.2,0.6,0.4,1.1,0.4v0.4h-6.3v-0.4c0.5,0,0.9-0.2,1.1-0.4
			c0.2-0.2,0.2-0.7,0.2-1.5v-6.8c0-0.8-0.1-1.3-0.3-1.6c-0.2-0.2-0.6-0.4-1.1-0.4v-0.5H125z M123.2,35.6c0.5,0,1,0.2,1.4,0.6
			c0.4,0.4,0.6,0.8,0.6,1.4c0,0.5-0.2,1-0.6,1.4c-0.4,0.4-0.8,0.6-1.4,0.6c-0.5,0-1-0.2-1.4-0.6c-0.4-0.4-0.6-0.8-0.6-1.4
			c0-0.5,0.2-1,0.6-1.4C122.2,35.8,122.7,35.6,123.2,35.6"/>
		<path class="st3" d="M132.3,41.2v1.5c0.6-0.7,1.2-1.2,1.8-1.5c0.5-0.3,1.1-0.4,1.8-0.4c0.7,0,1.4,0.2,1.9,0.5
			c0.5,0.3,0.9,0.9,1.2,1.6c0.7-0.7,1.3-1.3,1.9-1.6c0.6-0.3,1.2-0.5,1.9-0.5c0.8,0,1.4,0.2,1.9,0.6c0.5,0.4,0.8,0.8,1,1.4
			c0.2,0.6,0.3,1.5,0.3,2.7v4.8c0,0.9,0.1,1.5,0.2,1.7c0.2,0.2,0.5,0.4,1,0.4v0.4h-6v-0.4c0.5,0,0.8-0.2,1-0.5
			c0.1-0.2,0.2-0.7,0.2-1.5v-5c0-1,0-1.7-0.1-2c-0.1-0.3-0.2-0.5-0.4-0.6c-0.2-0.1-0.4-0.2-0.6-0.2c-0.4,0-0.7,0.1-1.1,0.4
			c-0.4,0.3-0.7,0.7-1.1,1.2v6.2c0,0.8,0.1,1.4,0.2,1.6c0.2,0.3,0.6,0.5,1.1,0.5v0.4h-6v-0.4c0.3,0,0.6-0.1,0.8-0.2
			c0.2-0.1,0.3-0.3,0.4-0.5c0.1-0.2,0.1-0.6,0.1-1.3v-5c0-1.1,0-1.7-0.1-2c-0.1-0.3-0.2-0.5-0.4-0.6c-0.2-0.1-0.4-0.2-0.6-0.2
			c-0.3,0-0.6,0.1-0.9,0.3c-0.4,0.3-0.8,0.7-1.2,1.3v6.2c0,0.8,0.1,1.4,0.2,1.6c0.2,0.3,0.5,0.4,1,0.5v0.4h-6v-0.4
			c0.5-0.1,0.8-0.2,1-0.5c0.1-0.2,0.2-0.7,0.2-1.6v-6.6c0-0.9-0.1-1.4-0.2-1.6c-0.2-0.2-0.5-0.4-1-0.4v-0.5H132.3z"/>
		<path class="st3" d="M158.6,46.6h-6.4c0.1,1.5,0.5,2.8,1.2,3.7c0.6,0.7,1.3,1,2.1,1c0.5,0,1-0.1,1.4-0.4c0.4-0.3,0.8-0.8,1.3-1.5
			l0.4,0.3c-0.6,1.3-1.3,2.2-2.1,2.7c-0.8,0.5-1.6,0.8-2.6,0.8c-1.7,0-3-0.7-3.9-2c-0.7-1.1-1.1-2.4-1.1-4c0-1.9,0.5-3.5,1.6-4.6
			c1-1.1,2.3-1.7,3.7-1.7c1.2,0,2.2,0.5,3.1,1.4C158,43.3,158.5,44.7,158.6,46.6 M155.5,45.8c0-1.3-0.1-2.3-0.2-2.7
			c-0.1-0.5-0.4-0.9-0.7-1.1c-0.2-0.1-0.4-0.2-0.7-0.2c-0.4,0-0.8,0.2-1.1,0.6c-0.5,0.7-0.7,1.7-0.7,3v0.4H155.5z"/>
		<path class="st3" d="M168.5,52.4v0.5h-8.8v-0.5h0.6c0.5,0,0.9-0.1,1.2-0.3c0.2-0.1,0.4-0.3,0.5-0.6c0.1-0.2,0.1-0.7,0.1-1.6V38.9
			c0-0.9,0-1.4-0.1-1.6c-0.1-0.2-0.3-0.4-0.6-0.6c-0.3-0.2-0.7-0.2-1.1-0.2h-0.6V36h8.8v0.5h-0.6c-0.5,0-0.9,0.1-1.2,0.3
			c-0.2,0.1-0.4,0.3-0.5,0.6c-0.1,0.2-0.1,0.7-0.1,1.6v11.1c0,0.9,0,1.4,0.1,1.6c0.1,0.2,0.3,0.4,0.6,0.6c0.3,0.2,0.7,0.2,1.1,0.2
			H168.5z"/>
		<path class="st3" d="M174.7,41.2v1.5c0.6-0.6,1.2-1.1,1.7-1.4c0.5-0.3,1.1-0.4,1.8-0.4c0.8,0,1.4,0.2,1.9,0.6
			c0.5,0.4,0.8,0.9,1,1.6c0.1,0.5,0.2,1.4,0.2,2.7v4.5c0,0.9,0.1,1.5,0.2,1.7c0.2,0.2,0.5,0.4,1,0.4v0.4h-5.9v-0.4
			c0.4-0.1,0.8-0.2,0.9-0.5c0.1-0.2,0.2-0.7,0.2-1.5v-5.2c0-1,0-1.6-0.1-1.8c-0.1-0.2-0.2-0.4-0.4-0.6c-0.2-0.1-0.4-0.2-0.6-0.2
			c-0.7,0-1.4,0.5-2,1.5v6.2c0,0.9,0.1,1.4,0.2,1.7c0.2,0.2,0.5,0.4,0.9,0.4v0.4h-5.9v-0.4c0.5-0.1,0.8-0.2,1-0.5
			c0.1-0.2,0.2-0.7,0.2-1.6v-6.6c0-0.9-0.1-1.4-0.2-1.6c-0.2-0.2-0.5-0.4-1-0.4v-0.5H174.7z"/>
		<path class="st3" d="M193.6,49.8l0.4,0.3c-0.5,1-1.2,1.8-2,2.3c-0.8,0.5-1.7,0.8-2.6,0.8c-1.5,0-2.8-0.6-3.7-1.8
			c-0.9-1.2-1.4-2.6-1.4-4.2c0-1.6,0.4-3,1.3-4.2c1-1.5,2.4-2.2,4.2-2.2c1.2,0,2.2,0.3,2.9,0.9s1.1,1.3,1.1,2c0,0.5-0.1,0.8-0.4,1.1
			c-0.3,0.3-0.7,0.4-1.1,0.4c-0.5,0-0.9-0.2-1.2-0.5c-0.3-0.3-0.5-0.9-0.6-1.7c0-0.5-0.2-0.9-0.4-1.1c-0.2-0.2-0.4-0.3-0.7-0.3
			c-0.4,0-0.7,0.2-1,0.6c-0.4,0.6-0.6,1.6-0.6,2.9c0,1.1,0.2,2.1,0.5,3.1c0.3,1,0.8,1.7,1.4,2.2c0.5,0.4,1,0.5,1.6,0.5
			c0.4,0,0.8-0.1,1.2-0.3C192.6,50.7,193.1,50.4,193.6,49.8"/>
		<path class="st3" d="M40.5,61.2l0.1,4.8h-0.4c-0.2-1.2-0.7-2.2-1.5-2.9C37.8,62.4,37,62,36.1,62c-0.7,0-1.3,0.2-1.7,0.6
			c-0.4,0.4-0.6,0.8-0.6,1.3c0,0.3,0.1,0.6,0.2,0.8c0.2,0.3,0.5,0.7,1,1c0.3,0.2,1.1,0.6,2.3,1.2c1.7,0.8,2.8,1.6,3.4,2.3
			c0.6,0.7,0.9,1.6,0.9,2.5c0,1.2-0.5,2.2-1.4,3.1c-0.9,0.9-2.1,1.3-3.5,1.3c-0.4,0-0.9,0-1.3-0.1c-0.4-0.1-0.9-0.3-1.5-0.5
			c-0.3-0.1-0.6-0.2-0.8-0.2c-0.2,0-0.4,0.1-0.6,0.2c-0.2,0.1-0.4,0.4-0.5,0.6h-0.4v-5.4h0.4c0.3,1.5,0.9,2.7,1.8,3.5
			c0.9,0.8,1.8,1.2,2.9,1.2c0.8,0,1.4-0.2,1.9-0.6c0.5-0.4,0.7-0.9,0.7-1.5c0-0.3-0.1-0.7-0.3-1c-0.2-0.3-0.5-0.6-0.8-0.9
			c-0.4-0.3-1-0.7-1.9-1.1c-1.3-0.6-2.2-1.2-2.8-1.6c-0.6-0.4-1-1-1.3-1.5c-0.3-0.6-0.5-1.2-0.5-1.8c0-1.1,0.4-2.1,1.3-2.9
			c0.8-0.8,1.9-1.2,3.2-1.2c0.5,0,0.9,0.1,1.3,0.2c0.3,0.1,0.7,0.2,1.2,0.5c0.5,0.2,0.8,0.3,1,0.3c0.2,0,0.3-0.1,0.4-0.2
			c0.1-0.1,0.2-0.4,0.3-0.8H40.5z"/>
		<path class="st3" d="M56.7,61.2v5h-0.4c-0.3-1.3-0.9-2.3-1.7-3c-0.8-0.7-1.8-1-2.9-1c-0.9,0-1.7,0.3-2.5,0.8s-1.3,1.2-1.6,2
			C47.2,66,47,67.2,47,68.5c0,1.3,0.2,2.4,0.5,3.5c0.3,1.1,0.8,1.8,1.5,2.4c0.7,0.5,1.6,0.8,2.7,0.8c0.9,0,1.7-0.2,2.5-0.6
			c0.7-0.4,1.5-1.1,2.4-2v1.2c-0.8,0.8-1.6,1.4-2.5,1.8c-0.9,0.4-1.9,0.6-3,0.6c-1.5,0-2.9-0.3-4.1-0.9c-1.2-0.6-2.1-1.5-2.7-2.6
			c-0.6-1.1-1-2.4-1-3.7c0-1.4,0.4-2.7,1.1-3.9c0.7-1.2,1.7-2.2,2.9-2.8c1.2-0.7,2.5-1,3.9-1c1,0,2.1,0.2,3.2,0.7
			c0.6,0.3,1.1,0.4,1.2,0.4c0.2,0,0.4-0.1,0.6-0.2c0.2-0.2,0.3-0.4,0.3-0.8H56.7z"/>
		<path class="st3" d="M66.2,61.4c2.3-0.1,4.1,0.6,5.5,2c1.4,1.4,2.1,3.2,2.1,5.3c0,1.8-0.5,3.4-1.6,4.8c-1.4,1.8-3.4,2.7-6,2.7
			c-2.6,0-4.6-0.9-6-2.6c-1.1-1.4-1.7-3-1.7-4.9c0-2.1,0.7-3.9,2.2-5.3C62.4,62,64.1,61.3,66.2,61.4 M66.4,62c-1.3,0-2.3,0.7-3,2
			c-0.6,1.1-0.8,2.7-0.8,4.7c0,2.4,0.4,4.2,1.3,5.4c0.6,0.8,1.4,1.2,2.5,1.2c0.7,0,1.3-0.2,1.8-0.5c0.6-0.4,1.1-1.2,1.4-2.2
			c0.3-1,0.5-2.3,0.5-3.9c0-1.9-0.2-3.3-0.5-4.2c-0.4-0.9-0.8-1.6-1.3-2C67.7,62.2,67.1,62,66.4,62"/>
		<path class="st3" d="M80.4,69.4v4c0,0.8,0,1.3,0.1,1.5c0.1,0.2,0.3,0.4,0.5,0.5c0.2,0.1,0.7,0.2,1.3,0.2v0.4h-7.3v-0.4
			c0.7,0,1.1-0.1,1.3-0.2c0.2-0.1,0.4-0.3,0.5-0.5c0.1-0.2,0.1-0.7,0.1-1.5v-9.3c0-0.8,0-1.3-0.1-1.5c-0.1-0.2-0.3-0.4-0.5-0.5
			C76.2,62,75.8,62,75.1,62v-0.4h6.6c1.7,0,3,0.1,3.8,0.4c0.8,0.2,1.5,0.7,2,1.3c0.5,0.6,0.8,1.4,0.8,2.3c0,1.1-0.4,1.9-1.1,2.6
			c-0.5,0.4-1.2,0.8-2,1l3.4,4.8c0.4,0.6,0.8,1,1,1.2c0.3,0.2,0.6,0.3,1,0.4v0.4H86l-4.6-6.5H80.4z M80.4,62.3v6.3H81
			c1,0,1.7-0.1,2.2-0.3c0.5-0.2,0.9-0.5,1.1-1c0.3-0.5,0.4-1.1,0.4-1.8c0-1.1-0.3-1.9-0.8-2.4c-0.5-0.5-1.3-0.8-2.5-0.8H80.4z"/>
		<path class="st3" d="M96.2,62.4v5.8h0.3c0.9,0,1.6-0.3,2-0.9c0.4-0.6,0.7-1.4,0.8-2.5h0.4v7.5h-0.4c-0.1-0.8-0.3-1.5-0.5-2
			c-0.3-0.5-0.6-0.9-0.9-1c-0.4-0.2-0.9-0.3-1.6-0.3v4c0,0.8,0,1.3,0.1,1.4c0.1,0.2,0.2,0.3,0.4,0.4c0.2,0.1,0.5,0.2,0.9,0.2h0.9
			c1.3,0,2.4-0.3,3.2-0.9c0.8-0.6,1.4-1.6,1.7-2.8h0.4l-0.6,4.5H90.7v-0.4h0.5c0.4,0,0.7-0.1,1-0.2c0.2-0.1,0.3-0.3,0.4-0.5
			c0.1-0.2,0.1-0.6,0.1-1.3V64c0-0.6,0-1-0.1-1.2c-0.1-0.2-0.2-0.4-0.4-0.6C92,62.1,91.7,62,91.2,62h-0.5v-0.4h12v4.2h-0.4
			c-0.2-1-0.5-1.8-0.9-2.2c-0.4-0.4-0.9-0.8-1.6-1c-0.4-0.1-1.1-0.2-2.2-0.2H96.2z"/>
		<path class="st3" d="M114.3,68.3c1.4,0.3,2.3,0.7,2.9,1.1c0.8,0.6,1.2,1.5,1.2,2.5c0,1.1-0.4,2-1.3,2.7c-1.1,0.9-2.6,1.3-4.6,1.3
			h-7.3v-0.4c0.7,0,1.1-0.1,1.3-0.2c0.2-0.1,0.4-0.3,0.5-0.5c0.1-0.2,0.1-0.7,0.1-1.5v-9.3c0-0.8,0-1.3-0.1-1.5
			c-0.1-0.2-0.3-0.4-0.5-0.5s-0.7-0.2-1.3-0.2v-0.4h6.8c1.6,0,2.8,0.1,3.5,0.4c0.7,0.3,1.2,0.7,1.6,1.3c0.4,0.6,0.6,1.2,0.6,1.8
			c0,0.7-0.3,1.3-0.7,1.8C116.4,67.5,115.5,68,114.3,68.3 M110.4,68.8v4.6l0,0.5c0,0.4,0.1,0.7,0.3,0.9c0.2,0.2,0.5,0.3,0.9,0.3
			c0.6,0,1.1-0.1,1.6-0.4c0.5-0.2,0.8-0.6,1.1-1.1c0.3-0.5,0.4-1,0.4-1.6c0-0.7-0.2-1.3-0.5-1.8c-0.3-0.5-0.7-0.9-1.3-1.1
			C112.3,68.9,111.5,68.8,110.4,68.8 M110.4,68c1,0,1.7-0.1,2.2-0.3c0.5-0.2,0.8-0.5,1.1-0.9c0.3-0.4,0.4-0.9,0.4-1.6
			c0-0.6-0.1-1.1-0.4-1.6c-0.2-0.4-0.6-0.7-1.1-0.9c-0.5-0.2-1.2-0.3-2.2-0.3V68z"/>
		<path class="st3" d="M127.4,61.4c2.3-0.1,4.1,0.6,5.5,2c1.4,1.4,2.1,3.2,2.1,5.3c0,1.8-0.5,3.4-1.6,4.8c-1.4,1.8-3.4,2.7-6,2.7
			c-2.6,0-4.6-0.9-6-2.6c-1.1-1.4-1.7-3-1.7-4.9c0-2.1,0.7-3.9,2.2-5.3C123.5,62,125.3,61.3,127.4,61.4 M127.5,62
			c-1.3,0-2.3,0.7-3,2c-0.6,1.1-0.8,2.7-0.8,4.7c0,2.4,0.4,4.2,1.3,5.4c0.6,0.8,1.4,1.2,2.5,1.2c0.7,0,1.3-0.2,1.8-0.5
			c0.6-0.4,1.1-1.2,1.4-2.2c0.3-1,0.5-2.3,0.5-3.9c0-1.9-0.2-3.3-0.5-4.2c-0.4-0.9-0.8-1.6-1.3-2C128.9,62.2,128.2,62,127.5,62"/>
		<path class="st3" d="M144.8,71.8h-5l-0.6,1.4c-0.2,0.5-0.3,0.8-0.3,1.1c0,0.4,0.2,0.7,0.5,0.9c0.2,0.1,0.7,0.2,1.4,0.3v0.4H136
			v-0.4c0.5-0.1,0.9-0.3,1.3-0.6c0.3-0.3,0.7-1.1,1.2-2.2l5.1-11.4h0.2L149,73c0.5,1.1,0.9,1.8,1.2,2.1c0.2,0.2,0.6,0.3,1,0.4v0.4
			h-6.9v-0.4h0.3c0.6,0,0.9-0.1,1.2-0.2c0.2-0.1,0.2-0.3,0.2-0.5l-0.1-0.4c0-0.1-0.1-0.3-0.3-0.8L144.8,71.8z M144.5,71l-2.1-4.9
			l-2.2,4.9H144.5z"/>
		<path class="st3" d="M157.2,69.4v4c0,0.8,0,1.3,0.1,1.5c0.1,0.2,0.3,0.4,0.5,0.5c0.2,0.1,0.7,0.2,1.3,0.2v0.4h-7.3v-0.4
			c0.7,0,1.1-0.1,1.3-0.2c0.2-0.1,0.4-0.3,0.5-0.5c0.1-0.2,0.1-0.7,0.1-1.5v-9.3c0-0.8,0-1.3-0.1-1.5c-0.1-0.2-0.3-0.4-0.5-0.5
			c-0.2-0.1-0.7-0.2-1.3-0.2v-0.4h6.6c1.7,0,3,0.1,3.8,0.4c0.8,0.2,1.5,0.7,2,1.3c0.5,0.6,0.8,1.4,0.8,2.3c0,1.1-0.4,1.9-1.1,2.6
			c-0.5,0.4-1.2,0.8-2,1l3.4,4.8c0.4,0.6,0.8,1,1,1.2c0.3,0.2,0.6,0.3,1,0.4v0.4h-4.5l-4.6-6.5H157.2z M157.2,62.3v6.3h0.6
			c1,0,1.7-0.1,2.2-0.3c0.5-0.2,0.9-0.5,1.1-1c0.3-0.5,0.4-1.1,0.4-1.8c0-1.1-0.3-1.9-0.8-2.4c-0.5-0.5-1.3-0.8-2.5-0.8H157.2z"/>
		<path class="st3" d="M167.3,75.9v-0.4h0.5c0.4,0,0.7-0.1,1-0.2c0.2-0.1,0.4-0.3,0.5-0.5c0.1-0.1,0.1-0.6,0.1-1.3V64
			c0-0.7,0-1.2-0.1-1.4c-0.1-0.2-0.2-0.3-0.5-0.5c-0.2-0.1-0.6-0.2-1-0.2h-0.5v-0.4h6.4c1.7,0,3.1,0.2,4.1,0.7
			c1.3,0.6,2.2,1.4,2.9,2.6c0.7,1.2,1,2.5,1,3.9c0,1-0.2,1.9-0.5,2.8c-0.3,0.8-0.7,1.5-1.3,2.1c-0.5,0.6-1.1,1-1.8,1.3
			c-0.7,0.3-1.5,0.6-2.5,0.8c-0.4,0.1-1.1,0.1-2,0.1H167.3z M172.8,62.4v11.1c0,0.6,0,1,0.1,1.1l0.3,0.3c0.2,0.1,0.5,0.2,0.8,0.2
			c1.2,0,2.1-0.4,2.7-1.2c0.8-1.1,1.3-2.8,1.3-5c0-1.8-0.3-3.3-0.9-4.4c-0.5-0.9-1-1.4-1.8-1.7C174.8,62.5,173.9,62.4,172.8,62.4"/>
		<path class="st3" d="M192.8,61.2l0.1,4.8h-0.4c-0.2-1.2-0.7-2.2-1.5-2.9c-0.8-0.7-1.7-1.1-2.6-1.1c-0.7,0-1.3,0.2-1.7,0.6
			c-0.4,0.4-0.6,0.8-0.6,1.3c0,0.3,0.1,0.6,0.2,0.8c0.2,0.3,0.5,0.7,1,1c0.3,0.2,1.1,0.6,2.3,1.2c1.7,0.8,2.8,1.6,3.4,2.3
			c0.6,0.7,0.9,1.6,0.9,2.5c0,1.2-0.5,2.2-1.4,3.1c-0.9,0.9-2.1,1.3-3.5,1.3c-0.4,0-0.9,0-1.3-0.1c-0.4-0.1-0.9-0.3-1.5-0.5
			c-0.3-0.1-0.6-0.2-0.8-0.2c-0.2,0-0.4,0.1-0.6,0.2c-0.2,0.1-0.4,0.4-0.5,0.6h-0.4v-5.4h0.4c0.3,1.5,0.9,2.7,1.8,3.5
			c0.9,0.8,1.8,1.2,2.9,1.2c0.8,0,1.4-0.2,1.9-0.6c0.5-0.4,0.7-0.9,0.7-1.5c0-0.3-0.1-0.7-0.3-1c-0.2-0.3-0.5-0.6-0.8-0.9
			c-0.4-0.3-1-0.7-1.9-1.1c-1.3-0.6-2.2-1.2-2.8-1.6c-0.6-0.4-1-1-1.3-1.5c-0.3-0.6-0.5-1.2-0.5-1.8c0-1.1,0.4-2.1,1.3-2.9
			c0.8-0.8,1.9-1.2,3.2-1.2c0.5,0,0.9,0.1,1.3,0.2c0.3,0.1,0.7,0.2,1.2,0.5c0.5,0.2,0.8,0.3,1,0.3c0.2,0,0.3-0.1,0.4-0.2
			c0.1-0.1,0.2-0.4,0.3-0.8H192.8z"/>
		<rect x="31.4" y="56.9" class="st3" width="162.5" height="1.4"/>
	</g>
	<rect x="26.8" y="60.6" class="st1" width="169.9" height="19"/>
	<g>
		<path class="st3" d="M33,78.5c0.5,0,0.9-0.1,1.1-0.2c0.4-0.2,0.6-0.6,0.6-1.2V66.6c0-0.5-0.2-0.9-0.6-1.1
			c-0.2-0.1-0.6-0.2-1.2-0.3v-0.5h6.4c2.6,0,4.6,0.7,5.9,2.1c1.2,1.3,1.9,3,1.9,5.1c0,1.9-0.6,3.5-1.9,4.9C44,78.3,42.1,79,39.7,79
			H33V78.5z M38.4,78c0.1,0.2,0.4,0.3,0.9,0.3c1.2,0,2.3-0.4,3.1-1.3s1.2-2.6,1.2-5.1c0-1.5-0.2-2.8-0.6-3.9
			c-0.7-1.7-1.9-2.6-3.5-2.6c-0.5,0-0.9,0.1-1.1,0.4c-0.1,0.2-0.2,0.4-0.2,0.9v10.4C38.2,77.5,38.3,77.8,38.4,78z"/>
		<path class="st3" d="M48.3,78.5c0.6,0,1-0.1,1.3-0.2c0.4-0.2,0.6-0.6,0.6-1.3V66.7c0-0.6-0.2-1-0.6-1.3c-0.2-0.1-0.7-0.2-1.3-0.2
			v-0.5h7.3v0.5c-0.7,0-1.1,0.1-1.4,0.2c-0.4,0.2-0.6,0.6-0.6,1.3V77c0,0.6,0.2,1,0.5,1.2c0.3,0.2,0.8,0.3,1.5,0.3V79h-7.3V78.5z"/>
		<path class="st3" d="M58.9,66.6c1.4-1.5,3.2-2.2,5.3-2.2c0.9,0,1.7,0.2,2.6,0.5s1.4,0.5,1.6,0.5c0.2,0,0.4-0.1,0.5-0.2
			c0.1-0.2,0.2-0.4,0.3-0.7h0.6v5h-0.5c-0.5-1.1-1-1.9-1.5-2.5c-1-1.1-2.1-1.7-3.3-1.7c-1.4,0-2.3,0.6-3,1.8s-0.9,2.9-0.9,5
			c0,1.8,0.3,3.3,0.9,4.7s1.7,2.1,3.4,2.1c0.9,0,1.5-0.2,1.8-0.6c0.2-0.2,0.3-0.5,0.3-1v-2.2c0-0.6-0.2-1.1-0.6-1.3
			c-0.3-0.1-0.8-0.2-1.5-0.2v-0.5H72v0.5c-0.7,0-1.2,0.2-1.4,0.4c-0.2,0.3-0.4,0.8-0.4,1.5v2.7c-0.5,0.3-1.2,0.6-2.3,0.9
			s-2.2,0.4-3.5,0.4c-2.3,0-4.2-0.7-5.6-2.2c-1.3-1.4-1.9-3.1-1.9-5.2C56.9,69.8,57.6,68.1,58.9,66.6z"/>
		<path class="st3" d="M72.8,78.5c0.6,0,1-0.1,1.3-0.2c0.4-0.2,0.6-0.6,0.6-1.3V66.7c0-0.6-0.2-1-0.6-1.3c-0.2-0.1-0.7-0.2-1.3-0.2
			v-0.5h7.3v0.5c-0.7,0-1.1,0.1-1.4,0.2c-0.4,0.2-0.6,0.6-0.6,1.3V77c0,0.6,0.2,1,0.5,1.2c0.3,0.2,0.8,0.3,1.5,0.3V79h-7.3V78.5z"/>
		<path class="st3" d="M81.2,64.7h12.7l0,4.3h-0.6c-0.2-1.5-0.8-2.6-1.7-3.1c-0.5-0.3-1.3-0.5-2.4-0.5v11.2c0,0.8,0.1,1.3,0.4,1.6
			c0.3,0.3,0.8,0.4,1.7,0.4V79h-7.5v-0.5c0.8,0,1.4-0.1,1.6-0.4c0.3-0.3,0.4-0.8,0.4-1.6V65.3c-1,0-1.8,0.2-2.4,0.5
			c-1,0.6-1.6,1.6-1.7,3.1h-0.6L81.2,64.7z"/>
		<path class="st3" d="M95,78.5c0.5,0,0.9-0.3,1.2-0.7c0.2-0.3,0.5-0.9,0.9-1.8l4.7-11.6h0.6l4.7,11.2c0.5,1.3,0.9,2.1,1.2,2.4
			c0.3,0.4,0.6,0.5,1.1,0.5V79h-6.8v-0.5c0.7,0,1.1-0.1,1.3-0.2s0.3-0.3,0.3-0.7c0-0.2-0.1-0.4-0.2-0.8c-0.1-0.2-0.2-0.4-0.3-0.7
			l-0.5-1.3h-4.7c-0.3,0.8-0.5,1.4-0.6,1.6c-0.2,0.5-0.3,0.9-0.3,1.2c0,0.3,0.2,0.5,0.6,0.7c0.2,0.1,0.6,0.1,1.1,0.1V79H95V78.5z
			 M102.9,74l-2-4.9h-0.2L98.8,74H102.9z"/>
		<path class="st3" d="M110.2,78.5c0.6,0,1-0.1,1.2-0.2c0.4-0.2,0.6-0.6,0.6-1.3V66.7c0-0.6-0.2-1-0.6-1.2c-0.2-0.1-0.7-0.2-1.3-0.2
			v-0.5h7.3v0.5c-0.9,0-1.4,0.1-1.7,0.4s-0.4,0.7-0.4,1.6v10c0,0.5,0.1,0.8,0.4,0.9c0.2,0.2,0.7,0.2,1.4,0.2c1.3,0,2.3-0.3,3.2-0.8
			c0.9-0.6,1.6-1.7,2.2-3.3h0.6l-0.9,4.8h-12.2V78.5z"/>
		<path class="st3" d="M129.8,74.1h0.6c0.3,1.6,0.9,2.7,1.6,3.5c0.7,0.7,1.6,1.1,2.6,1.1c0.9,0,1.6-0.2,2-0.7s0.6-1,0.6-1.6
			c0-0.6-0.2-1.2-0.6-1.6c-0.3-0.3-0.8-0.6-1.7-1l-1.3-0.7c-1.3-0.7-2.3-1.3-2.8-2c-0.5-0.7-0.8-1.5-0.8-2.5c0-1,0.4-2,1.1-2.9
			c0.7-0.9,1.8-1.3,3.3-1.3c0.8,0,1.5,0.1,2.2,0.4c0.7,0.2,1.1,0.4,1.2,0.4c0.2,0,0.4-0.1,0.5-0.2c0.1-0.1,0.2-0.3,0.2-0.5h0.6v4.6
			h-0.6c-0.3-1.1-0.8-2-1.4-2.8c-0.7-0.8-1.5-1.2-2.5-1.2c-0.7,0-1.2,0.2-1.7,0.6c-0.4,0.4-0.6,0.9-0.6,1.4c0,0.7,0.2,1.2,0.6,1.5
			c0.4,0.3,1.2,0.8,2.5,1.5l1.6,0.8c0.7,0.4,1.2,0.7,1.7,1.2c0.8,0.8,1.2,1.8,1.2,2.9c0,1.1-0.4,2.1-1.2,3c-0.8,1-2.1,1.4-4,1.4
			c-0.4,0-0.8,0-1.3-0.1c-0.4-0.1-0.8-0.2-1.3-0.4l-0.4-0.2c-0.1,0-0.2,0-0.3-0.1c-0.1,0-0.2,0-0.2,0c-0.2,0-0.4,0.1-0.4,0.2
			c-0.1,0.1-0.2,0.3-0.2,0.5h-0.6V74.1z"/>
		<path class="st3" d="M141.1,78.5c0.6,0,1-0.1,1.3-0.2c0.4-0.2,0.6-0.6,0.6-1.3V66.7c0-0.6-0.2-1-0.6-1.3c-0.2-0.1-0.7-0.2-1.3-0.2
			v-0.5h7.3v0.5c-0.7,0-1.1,0.1-1.4,0.2c-0.4,0.2-0.6,0.6-0.6,1.3V77c0,0.6,0.2,1,0.5,1.2c0.3,0.2,0.8,0.3,1.5,0.3V79h-7.3V78.5z"/>
		<path class="st3" d="M151.7,66.6c1.4-1.5,3.2-2.2,5.3-2.2c0.9,0,1.7,0.2,2.6,0.5c0.9,0.3,1.4,0.5,1.6,0.5c0.2,0,0.4-0.1,0.5-0.2
			c0.1-0.2,0.2-0.4,0.3-0.7h0.6v5h-0.5c-0.5-1.1-1-1.9-1.5-2.5c-1-1.1-2.1-1.7-3.3-1.7c-1.4,0-2.3,0.6-3,1.8c-0.6,1.2-0.9,2.9-0.9,5
			c0,1.8,0.3,3.3,0.9,4.7s1.7,2.1,3.4,2.1c0.9,0,1.5-0.2,1.8-0.6c0.2-0.2,0.3-0.5,0.3-1v-2.2c0-0.6-0.2-1.1-0.6-1.3
			c-0.3-0.1-0.8-0.2-1.5-0.2v-0.5h7.2v0.5c-0.7,0-1.2,0.2-1.4,0.4s-0.4,0.8-0.4,1.5v2.7c-0.5,0.3-1.2,0.6-2.3,0.9s-2.2,0.4-3.5,0.4
			c-2.3,0-4.2-0.7-5.6-2.2c-1.3-1.4-1.9-3.1-1.9-5.2C149.7,69.8,150.4,68.1,151.7,66.6z"/>
		<path class="st3" d="M165.6,78.5c0.8,0,1.3-0.2,1.5-0.5c0.2-0.3,0.3-0.7,0.3-1.2V66.7c-0.6-0.7-1-1.2-1.2-1.3s-0.4-0.2-0.6-0.2
			v-0.5h4.5l7.2,8.9h0.1v-6.2c0-0.7-0.1-1.2-0.4-1.5c-0.3-0.3-0.8-0.5-1.6-0.6v-0.5h4.5v0.5c-0.7,0.1-1.1,0.3-1.3,0.4
			c-0.2,0.2-0.3,0.6-0.3,1.2v12.5h-0.6l-9.2-11.3h-0.1v8.3c0,0.7,0.1,1.1,0.3,1.4c0.3,0.4,0.9,0.7,1.7,0.7V79h-4.8V78.5z"/>
		<path class="st3" d="M181.2,74.1h0.6c0.3,1.6,0.9,2.7,1.6,3.5c0.7,0.7,1.6,1.1,2.6,1.1c0.9,0,1.6-0.2,2-0.7s0.6-1,0.6-1.6
			c0-0.6-0.2-1.2-0.6-1.6c-0.3-0.3-0.8-0.6-1.7-1L185,73c-1.3-0.7-2.3-1.3-2.8-2c-0.5-0.7-0.8-1.5-0.8-2.5c0-1,0.4-2,1.1-2.9
			c0.7-0.9,1.8-1.3,3.3-1.3c0.8,0,1.5,0.1,2.2,0.4c0.7,0.2,1.1,0.4,1.2,0.4c0.2,0,0.4-0.1,0.5-0.2c0.1-0.1,0.2-0.3,0.2-0.5h0.6v4.6
			h-0.6c-0.3-1.1-0.8-2-1.4-2.8c-0.7-0.8-1.5-1.2-2.5-1.2c-0.7,0-1.2,0.2-1.7,0.6c-0.4,0.4-0.6,0.9-0.6,1.4c0,0.7,0.2,1.2,0.6,1.5
			c0.4,0.3,1.2,0.8,2.5,1.5l1.6,0.8c0.7,0.4,1.2,0.7,1.7,1.2c0.8,0.8,1.2,1.8,1.2,2.9c0,1.1-0.4,2.1-1.2,3c-0.8,1-2.1,1.4-4,1.4
			c-0.4,0-0.8,0-1.3-0.1c-0.4-0.1-0.8-0.2-1.3-0.4l-0.4-0.2c-0.1,0-0.2,0-0.3-0.1c-0.1,0-0.2,0-0.2,0c-0.2,0-0.4,0.1-0.4,0.2
			c-0.1,0.1-0.2,0.3-0.2,0.5h-0.6V74.1z"/>
	</g>
</g>
</svg>
